<svg id="svg" version="1.1" xmlns="http://www.w3.org/2000/svg" xmlns:xlink="http://www.w3.org/1999/xlink" width="400" height="400" viewBox="0, 0, 400,400"><g id="svgg"><path id="path0" d="M179.000 80.400 C 178.838 80.663,163.993 80.800,135.769 80.800 L 92.785 80.800 92.892 89.900 L 93.000 99.000 111.600 99.200 L 130.200 99.400 130.304 118.382 C 130.395 134.967,130.332 137.406,129.804 137.702 C 128.889 138.214,128.885 261.640,129.800 262.400 C 130.323 262.834,130.400 266.558,130.400 291.449 L 130.400 320.000 140.795 320.000 L 151.190 320.000 151.399 291.100 C 151.618 260.866,151.685 151.643,151.505 118.600 L 151.400 99.400 169.800 99.200 L 188.200 99.000 188.325 97.478 C 188.396 96.619,188.701 95.859,189.025 95.735 C 189.498 95.554,189.600 94.131,189.600 87.757 L 189.600 80.000 184.424 80.000 C 181.404 80.000,179.144 80.167,179.000 80.400 M212.400 125.400 L 212.400 138.000 222.600 138.000 L 232.800 138.000 232.800 125.400 L 232.800 112.800 222.600 112.800 L 212.400 112.800 212.400 125.400 M211.873 171.460 C 211.723 171.610,211.600 173.329,211.600 175.279 C 211.600 178.062,211.471 178.875,211.000 179.055 C 210.477 179.256,210.400 181.956,210.400 200.000 C 210.400 218.044,210.477 220.744,211.000 220.945 C 211.961 221.313,211.905 303.790,210.943 304.328 C 210.452 304.603,210.359 304.986,210.572 305.848 C 210.729 306.481,210.954 307.587,211.073 308.304 C 211.191 309.021,211.449 309.706,211.644 309.827 C 211.840 309.948,212.000 310.487,212.000 311.024 C 212.000 311.561,212.180 312.000,212.400 312.000 C 212.620 312.000,212.800 312.249,212.800 312.554 C 212.800 313.140,217.707 318.394,218.269 318.409 C 218.451 318.414,219.050 318.770,219.600 319.200 C 220.150 319.630,221.005 319.986,221.500 319.991 C 221.995 319.996,222.400 320.180,222.400 320.400 C 222.400 320.664,235.133 320.800,259.800 320.800 C 284.467 320.800,297.200 320.664,297.200 320.400 C 297.200 320.180,297.740 320.000,298.400 320.000 C 299.060 320.000,299.600 319.820,299.600 319.600 C 299.600 319.380,299.920 319.200,300.312 319.200 C 300.703 319.200,301.283 318.840,301.600 318.400 C 301.917 317.960,302.352 317.600,302.566 317.600 C 303.109 317.600,305.200 315.546,305.200 315.013 C 305.200 314.773,305.560 314.317,306.000 314.000 C 306.440 313.683,306.800 313.103,306.800 312.712 C 306.800 312.320,306.980 312.000,307.200 312.000 C 307.420 312.000,307.600 311.640,307.600 311.200 C 307.600 310.760,307.757 310.400,307.948 310.400 C 308.765 310.400,308.839 303.547,308.564 253.341 L 308.275 200.473 303.438 200.227 C 300.777 200.091,290.005 199.939,279.500 199.890 L 260.400 199.800 260.400 209.400 L 260.399 219.000 273.800 218.876 L 287.200 218.751 287.200 240.552 C 287.200 254.654,287.059 262.440,286.800 262.600 C 286.542 262.759,286.400 269.671,286.400 282.024 L 286.400 301.200 274.624 301.200 C 267.204 301.200,262.756 301.348,262.600 301.600 C 262.219 302.216,233.499 302.139,232.880 301.520 C 232.253 300.893,232.249 290.019,232.853 231.600 C 233.149 202.929,233.190 183.107,232.963 178.600 L 232.600 171.400 222.373 171.293 C 216.749 171.235,212.024 171.310,211.873 171.460 " stroke="none" fill="#fafafa" fill-rule="evenodd"></path><path id="path1" d="M54.000 200.000 L 54.000 346.000 75.000 346.000 L 96.000 346.000 96.000 325.000 L 96.000 304.000 112.800 304.000 L 129.600 304.000 129.600 283.633 C 129.600 272.431,129.491 262.981,129.357 262.633 C 129.141 262.070,127.304 262.000,112.757 262.000 L 96.400 262.000 96.400 200.000 L 96.400 138.000 112.757 138.000 C 127.304 138.000,129.141 137.930,129.357 137.367 C 129.491 137.019,129.600 128.381,129.600 118.171 L 129.600 99.608 110.900 99.504 L 92.200 99.400 92.093 89.909 L 91.986 80.419 92.998 80.165 C 93.555 80.025,94.503 79.983,95.105 80.072 L 96.200 80.232 96.089 67.116 L 95.979 54.000 74.989 54.000 L 54.000 54.000 54.000 200.000 M152.000 118.800 L 152.000 138.000 165.200 138.000 L 178.400 138.000 178.400 158.600 L 178.400 179.200 194.600 179.200 L 210.800 179.200 210.800 175.000 L 210.800 170.800 222.000 170.800 L 233.200 170.800 233.200 175.000 L 233.200 179.200 247.600 179.200 L 262.000 179.200 262.000 189.400 L 262.000 199.600 281.900 199.602 C 292.845 199.604,303.240 199.670,305.000 199.749 C 306.760 199.829,307.258 199.819,306.107 199.727 L 304.013 199.560 303.907 189.280 L 303.800 179.000 283.100 178.896 L 262.400 178.793 262.400 158.196 L 262.400 137.600 248.006 137.600 L 233.611 137.600 233.495 125.300 L 233.378 113.000 233.311 125.503 C 233.274 132.380,233.133 138.185,232.998 138.403 C 232.562 139.109,212.578 138.921,211.862 138.205 C 211.358 137.701,208.788 137.593,195.133 137.505 L 179.000 137.400 178.896 118.500 L 178.792 99.600 165.396 99.600 L 152.000 99.600 152.000 118.800 M262.000 220.000 C 262.000 220.785,261.733 220.800,247.600 220.800 L 233.200 220.800 233.200 241.600 L 233.200 262.400 247.800 262.400 L 262.400 262.400 262.400 241.800 L 262.400 221.200 274.400 221.200 L 286.400 221.200 286.400 220.200 L 286.400 219.200 274.200 219.200 C 262.267 219.200,262.000 219.217,262.000 220.000 M178.400 241.400 L 178.400 262.000 165.200 262.000 L 152.000 262.000 151.999 278.900 C 151.999 288.195,151.936 301.290,151.860 308.000 C 151.784 314.710,151.788 316.555,151.869 312.100 L 152.016 304.000 165.405 304.000 L 178.793 304.000 178.896 283.300 L 179.000 262.600 194.900 262.495 L 210.800 262.391 210.800 241.595 L 210.800 220.800 194.600 220.800 L 178.400 220.800 178.400 241.400 M135.500 320.699 C 138.415 320.767,143.185 320.767,146.100 320.699 C 149.015 320.631,146.630 320.575,140.800 320.575 C 134.970 320.575,132.585 320.631,135.500 320.699 " stroke="none" fill="#2c8c44" fill-rule="evenodd"></path><path id="path2" d="M92.667 80.667 C 92.297 81.037,92.329 99.200,92.700 99.200 C 92.865 99.201,92.949 95.061,92.886 90.002 L 92.771 80.804 135.886 80.700 L 179.000 80.596 135.967 80.498 C 112.298 80.444,92.813 80.520,92.667 80.667 M188.617 96.100 C 188.277 97.179,188.154 99.200,188.429 99.200 C 188.589 99.200,188.784 98.390,188.863 97.400 C 189.005 95.609,188.918 95.147,188.617 96.100 M129.400 118.549 C 129.400 133.943,129.503 137.859,129.904 137.705 C 130.547 137.458,130.445 99.548,129.800 99.333 C 129.537 99.246,129.400 105.828,129.400 118.549 M151.383 99.700 C 151.278 99.975,151.239 108.570,151.296 118.800 L 151.400 137.400 151.600 118.300 C 151.710 107.795,151.749 99.200,151.687 99.200 C 151.626 99.200,151.489 99.425,151.383 99.700 M212.267 112.667 C 212.120 112.813,212.000 118.666,212.000 125.673 L 212.000 138.413 222.467 138.307 C 230.561 138.224,232.957 138.084,233.037 137.690 C 233.094 137.410,233.049 137.365,232.937 137.590 C 232.806 137.854,229.111 138.000,222.567 138.000 L 212.400 138.000 212.400 125.407 L 212.400 112.814 222.700 112.700 L 233.000 112.586 222.767 112.493 C 217.138 112.442,212.413 112.520,212.267 112.667 M211.500 171.232 C 210.910 171.576,210.800 172.246,210.800 175.500 C 210.800 180.419,211.520 180.009,211.683 174.997 L 211.800 171.400 222.262 171.400 C 228.016 171.400,232.640 171.265,232.538 171.100 C 232.250 170.634,212.312 170.759,211.500 171.232 M304.700 200.289 C 305.415 200.378,306.585 200.378,307.300 200.289 C 308.015 200.201,307.430 200.128,306.000 200.128 C 304.570 200.128,303.985 200.201,304.700 200.289 M286.701 232.900 C 286.757 240.655,286.851 250.510,286.910 254.800 C 286.969 259.090,287.059 252.745,287.109 240.700 C 287.159 228.655,287.065 218.800,286.900 218.800 C 286.735 218.800,286.645 225.145,286.701 232.900 M210.856 262.510 C 210.935 285.506,211.135 304.238,211.300 304.137 C 211.812 303.823,211.669 221.290,211.156 220.973 C 210.831 220.772,210.751 231.939,210.856 262.510 M232.587 278.400 C 232.587 291.050,232.638 296.225,232.700 289.900 C 232.762 283.575,232.762 273.225,232.700 266.900 C 232.638 260.575,232.587 265.750,232.587 278.400 M129.645 285.734 C 129.779 298.750,129.914 311.878,129.945 314.907 L 130.000 320.413 140.700 320.307 L 151.400 320.200 151.404 291.600 L 151.408 263.000 151.301 291.500 L 151.195 320.000 140.797 320.000 L 130.400 320.000 130.400 291.449 C 130.400 269.096,130.291 262.808,129.900 262.482 C 129.500 262.151,129.449 266.824,129.645 285.734 M247.800 301.600 L 233.000 301.815 247.676 301.907 C 257.130 301.967,262.441 301.858,262.600 301.600 C 262.736 301.380,262.792 301.242,262.724 301.293 C 262.656 301.344,255.940 301.482,247.800 301.600 " stroke="none" fill="#a4bca4" fill-rule="evenodd"></path><path id="path3" d="M92.492 80.334 C 92.101 80.583,92.009 82.798,92.092 90.028 L 92.200 99.400 110.600 99.406 L 129.000 99.412 110.693 99.302 L 92.385 99.192 92.493 89.896 L 92.600 80.600 94.400 80.360 L 96.200 80.120 94.600 80.066 C 93.720 80.037,92.772 80.157,92.492 80.334 M188.959 96.162 C 188.841 96.471,188.807 97.326,188.883 98.062 C 189.006 99.235,189.047 99.166,189.215 97.500 C 189.411 95.552,189.339 95.174,188.959 96.162 M151.783 99.700 C 151.678 99.975,151.640 108.660,151.700 119.000 L 151.808 137.800 151.904 118.704 L 152.000 99.608 170.300 99.500 L 188.600 99.392 170.287 99.296 C 155.935 99.221,151.933 99.308,151.783 99.700 M211.782 112.904 C 211.675 113.181,211.636 119.076,211.695 126.004 L 211.801 138.600 212.000 125.500 C 212.110 118.295,212.149 112.400,212.087 112.400 C 212.026 112.400,211.888 112.627,211.782 112.904 M232.978 124.800 C 232.978 131.730,233.033 134.565,233.099 131.100 C 233.166 127.635,233.166 121.965,233.099 118.500 C 233.033 115.035,232.978 117.870,232.978 124.800 M232.967 137.993 C 232.737 138.223,228.360 138.433,222.387 138.500 L 212.200 138.614 222.451 138.707 C 231.154 138.786,232.777 138.709,233.200 138.200 C 233.754 137.532,233.581 137.379,232.967 137.993 M232.709 173.699 C 232.898 178.681,233.069 179.165,233.136 174.900 C 233.171 172.645,233.065 170.800,232.900 170.799 C 232.735 170.799,232.649 172.104,232.709 173.699 M272.700 199.900 C 278.475 199.962,287.925 199.962,293.700 199.900 C 299.475 199.837,294.750 199.786,283.200 199.786 C 271.650 199.786,266.925 199.837,272.700 199.900 M308.590 231.200 C 308.590 248.470,308.640 255.535,308.700 246.900 C 308.760 238.265,308.760 224.135,308.700 215.500 C 308.640 206.865,308.590 213.930,308.590 231.200 M274.396 219.097 L 286.393 219.212 286.502 240.906 L 286.610 262.600 286.605 240.800 L 286.600 219.000 274.500 218.991 L 262.400 218.982 274.396 219.097 M232.898 261.300 L 232.800 301.600 247.700 301.505 L 262.600 301.410 247.902 301.300 L 233.204 301.190 233.100 261.095 L 232.996 221.000 232.898 261.300 M210.986 283.000 C 210.986 294.660,211.037 299.372,211.100 293.472 C 211.162 287.571,211.162 278.031,211.100 272.272 C 211.037 266.512,210.986 271.340,210.986 283.000 M151.786 283.200 C 151.786 294.750,151.837 299.475,151.900 293.700 C 151.962 287.925,151.962 278.475,151.900 272.700 C 151.837 266.925,151.786 271.650,151.786 283.200 M129.769 312.200 C 129.770 316.820,129.828 318.655,129.899 316.278 C 129.970 313.901,129.969 310.121,129.898 307.878 C 129.827 305.635,129.769 307.580,129.769 312.200 " stroke="none" fill="#5c9c64" fill-rule="evenodd"></path><path id="path4" d="M12.000 200.000 L 12.000 388.000 54.200 388.000 L 96.400 388.000 96.400 367.200 L 96.400 346.400 137.800 346.400 L 179.200 346.400 179.200 325.405 L 179.200 304.409 194.900 304.305 L 210.600 304.200 210.704 283.295 L 210.807 262.391 194.904 262.495 L 179.000 262.600 178.896 283.300 L 178.793 304.000 165.396 304.000 L 152.000 304.000 152.000 312.157 C 152.000 319.227,151.916 320.347,151.367 320.557 C 150.542 320.874,131.058 320.874,130.233 320.557 C 129.684 320.347,129.600 319.227,129.600 312.157 L 129.600 304.000 112.800 304.000 L 96.000 304.000 96.000 325.000 L 96.000 346.000 75.000 346.000 L 54.000 346.000 54.000 200.000 L 54.000 54.000 74.995 54.000 L 95.989 54.000 96.095 67.100 L 96.200 80.200 137.600 80.200 L 179.000 80.200 179.105 66.900 L 179.211 53.600 137.805 53.600 L 96.400 53.600 96.400 32.800 L 96.400 12.000 54.200 12.000 L 12.000 12.000 12.000 200.000 M189.403 96.100 C 189.308 96.375,189.179 97.230,189.115 98.000 L 189.000 99.400 183.896 99.512 L 178.792 99.624 178.896 118.512 L 179.000 137.400 195.300 137.504 L 211.600 137.609 211.600 124.998 L 211.600 112.387 222.500 112.494 L 233.400 112.600 233.506 125.100 L 233.611 137.600 248.006 137.600 L 262.400 137.600 262.400 158.196 L 262.400 178.793 283.100 178.896 L 303.800 179.000 303.907 189.280 L 304.013 199.560 306.307 199.680 L 308.600 199.800 308.702 231.300 L 308.805 262.800 327.602 262.800 L 346.400 262.800 346.400 242.200 L 346.400 221.600 367.200 221.600 L 388.000 221.600 388.000 200.000 L 388.000 178.400 367.200 178.400 L 346.400 178.400 346.400 157.800 L 346.400 137.200 304.600 137.200 L 262.800 137.200 262.800 116.400 L 262.800 95.600 226.187 95.600 C 197.256 95.600,189.539 95.705,189.403 96.100 M262.400 241.800 L 262.400 262.400 247.800 262.400 L 233.200 262.400 233.200 281.800 L 233.200 301.200 248.000 301.200 L 262.800 301.200 262.800 282.000 L 262.800 262.800 274.600 262.800 L 286.400 262.800 286.400 242.000 L 286.400 221.200 274.400 221.200 L 262.400 221.200 262.400 241.800 " stroke="none" fill="#1c4c24" fill-rule="evenodd"></path></g></svg>